<svg xmlns="http://www.w3.org/2000/svg" xmlns:xlink="http://www.w3.org/1999/xlink" viewBox="0,0,256,256" width="64px" height="64px" fill-rule="nonzero"><defs><radialGradient cx="32.5" cy="31.5" r="30.516" gradientUnits="userSpaceOnUse" id="color-1"><stop offset="0" stop-color="#ffffff"></stop><stop offset="0.193" stop-color="#ffffff"></stop><stop offset="0.703" stop-color="#ffffff"></stop><stop offset="1" stop-color="#ffffff"></stop></radialGradient><linearGradient x1="32" y1="6" x2="32" y2="56" gradientUnits="userSpaceOnUse" id="color-2"><stop offset="0" stop-color="#42d778"></stop><stop offset="0.996" stop-color="#34b171"></stop><stop offset="1" stop-color="#34b171"></stop></linearGradient></defs><g fill="#ffffff" fill-rule="nonzero" stroke="none" stroke-width="1" stroke-linecap="butt" stroke-linejoin="miter" stroke-miterlimit="10" stroke-dasharray="" stroke-dashoffset="0" font-family="none" font-weight="none" font-size="none" text-anchor="none" style="mix-blend-mode: normal"><path d="M0,256v-256h256v256z" id="bgRectangle"></path></g><g fill="none" fill-rule="nonzero" stroke="none" stroke-width="1" stroke-linecap="butt" stroke-linejoin="miter" stroke-miterlimit="10" stroke-dasharray="" stroke-dashoffset="0" font-family="none" font-weight="none" font-size="none" text-anchor="none" style="mix-blend-mode: normal"><g transform="scale(4,4)"><path d="M59,20h1.5c2.168,0 3.892,-1.998 3.422,-4.243c-0.342,-1.635 -1.866,-2.757 -3.537,-2.757h-7.385c-1.105,0 -2,-0.895 -2,-2c0,-1.105 0.895,-2 2,-2h3.385c1.67,0 3.195,-1.122 3.537,-2.757c0.47,-2.245 -1.254,-4.243 -3.422,-4.243h-22.494h-1.506h-24c-1.925,0 -3.5,1.575 -3.5,3.5c0,1.925 1.575,3.5 3.5,3.5h1.5c1.105,0 2,0.895 2,2c0,1.105 -0.895,2 -2,2h-5.385c-1.67,0 -3.195,1.122 -3.537,2.757c-0.47,2.245 1.254,4.243 3.422,4.243h13.5v12h-13.385c-1.67,0 -3.195,1.122 -3.537,2.757c-0.47,2.245 1.254,4.243 3.422,4.243h0.5c1.105,0 2,0.895 2,2c0,1.105 -0.895,2 -2,2h-0.5c-2.168,0 -3.892,1.998 -3.422,4.243c0.342,1.635 1.867,2.757 3.537,2.757h5.385c1.105,0 2,0.895 2,2c0,1.105 -0.895,2 -2,2h-1.385c-1.67,0 -3.195,1.122 -3.537,2.757c-0.47,2.245 1.254,4.243 3.422,4.243h22.494h1.506h23c1.925,0 3.5,-1.575 3.5,-3.5c0,-1.925 -1.575,-3.5 -3.5,-3.5h-0.5c-1.105,0 -2,-0.895 -2,-2c0,-1.105 0.895,-2 2,-2h4.385c1.67,0 3.195,-1.122 3.537,-2.757c0.47,-2.245 -1.254,-4.243 -3.422,-4.243h-12.5v-12h12.385c1.67,0 3.195,-1.122 3.537,-2.757c0.47,-2.245 -1.254,-4.243 -3.422,-4.243h-0.5c-1.105,0 -2,-0.895 -2,-2c0,-1.105 0.895,-2 2,-2z" fill="url(#color-1)"></path><path d="M57,31c0,13.805 -11.195,25 -25,25c-13.805,0 -25,-11.195 -25,-25c0,-13.805 11.195,-25 25,-25c13.805,0 25,11.195 25,25z" fill="url(#color-2)"></path><path d="M32,18v0c1.657,0 3,1.343 3,3v20c0,1.657 -1.343,3 -3,3v0c-1.657,0 -3,-1.343 -3,-3v-20c0,-1.657 1.343,-3 3,-3z" fill="#ffffff"></path><path d="M45,31v0c0,1.657 -1.343,3 -3,3h-20c-1.657,0 -3,-1.343 -3,-3v0c0,-1.657 1.343,-3 3,-3h20c1.657,0 3,1.343 3,3z" fill="#ffffff"></path></g></g></svg>